<svg width="14" height="14" viewBox="0 0 14 14" fill="none" xmlns="http://www.w3.org/2000/svg">
<path d="M13.3733 6.16012L12.4667 5.10679C12.2933 4.90679 12.1533 4.53345 12.1533 4.26679V3.13345C12.1533 2.42679 11.5733 1.84679 10.8667 1.84679H9.73334C9.47334 1.84679 9.09334 1.70679 8.89334 1.53345L7.84 0.626787C7.38 0.233454 6.62667 0.233454 6.16 0.626787L5.11334 1.54012C4.91334 1.70679 4.53334 1.84679 4.27334 1.84679H3.12C2.41334 1.84679 1.83334 2.42679 1.83334 3.13345V4.27345C1.83334 4.53345 1.69334 4.90679 1.52667 5.10679L0.62667 6.16679C0.240003 6.62679 0.240003 7.37345 0.62667 7.83345L1.52667 8.89345C1.69334 9.09345 1.83334 9.46679 1.83334 9.72679V10.8668C1.83334 11.5735 2.41334 12.1535 3.12 12.1535H4.27334C4.53334 12.1535 4.91334 12.2935 5.11334 12.4668L6.16667 13.3735C6.62667 13.7668 7.38 13.7668 7.84667 13.3735L8.9 12.4668C9.1 12.2935 9.47334 12.1535 9.74 12.1535H10.8733C11.58 12.1535 12.16 11.5735 12.16 10.8668V9.73345C12.16 9.47345 12.3 9.09345 12.4733 8.89345L13.38 7.84012C13.7667 7.38012 13.7667 6.62012 13.3733 6.16012ZM9.77334 5.74012L6.55334 8.96012C6.46 9.05345 6.33334 9.10679 6.2 9.10679C6.06667 9.10679 5.94 9.05345 5.84667 8.96012L4.23334 7.34679C4.04 7.15345 4.04 6.83345 4.23334 6.64012C4.42667 6.44679 4.74667 6.44679 4.94 6.64012L6.2 7.90012L9.06667 5.03345C9.26 4.84012 9.58 4.84012 9.77334 5.03345C9.96667 5.22679 9.96667 5.54679 9.77334 5.74012Z" fill="white"/>
</svg>
